#!OML:ASF X:\für Bonn\!DataBase\2005_08_12_Daniel\c3d\Daniel.ASF
:FULLY-SPECIFIED
:DEGREES
185
root -0.287529 16.1315 1.80323 889.87 -41.1146 -896.149
lowerback 36.2408 -5.7419 8.45253
upperback 8.651 -6.2162 -0.176234
thorax -8.91582 -3.806 -2.02089
lowerneck -1.21938 4.23229 -0.758735
upperneck -0.619537 5.63029 -3.85718
head 0.105233 2.80181 -1.02203
rclavicle -3.33958e-014 6.95746e-016
rhumerus -43.4906 0.513229 -87.2515
rradius 70.8228
rwrist 2.09077
rhand -28.5872 12.495
rfingers 7.12502
rthumb -1.95302 -17.4758
lclavicle -3.33958e-014 6.95746e-016
lhumerus -28.2656 12.8752 85.2434
lradius 80.3014
lwrist -9.28015
lhand -28.3547 1.38286
lfingers 7.12502
lthumb -1.7285 31.3556
rfemur -31.8988 6.58409 26.8811
rtibia 55.9186
rfoot -16.0036 1.03847
rtoes -9.69561
lfemur 6.96432 7.16885 -15.0315
ltibia 71.6406
lfoot -4.65232 -6.61602
ltoes -9.2885
186
root -0.370069 16.1401 1.69453 889.694 -41.3103 -896.223
lowerback 36.3622 -5.69384 8.38309
upperback 8.70235 -6.18654 -0.207523
thorax -8.89777 -3.7947 -2.02504
lowerneck -1.12473 4.19564 -0.73243
upperneck -0.666373 5.57704 -3.89741
head 0.0765392 2.77669 -1.04201
rclavicle -3.10104e-014 6.06293e-015
rhumerus -43.3175 0.653896 -87.2043
rradius 70.8978
rwrist 2.18278
rhand -28.6717 12.4784
rfingers 7.12502
rthumb -2.03466 -17.4916
lclavicle -3.10104e-014 6.06293e-015
lhumerus -28.4061 12.978 85.1086
lradius 80.3756
lwrist -9.09114
lhand -28.2444 1.15122
lfingers 7.12502
lthumb -1.62198 31.1248
rfemur -31.2248 6.40812 26.9235
rtibia 56.1768
rfoot -16.7005 1.03139
rtoes -9.94191
lfemur 5.93591 7.26879 -14.7846
ltibia 73.1739
lfoot -5.31155 -6.67793
ltoes -9.06834
187
root -0.452032 16.1457 1.58552 889.504 -41.4678 -896.273
lowerback 36.4635 -5.59375 8.27664
upperback 8.75883 -6.10341 -0.174325
thorax -8.85215 -3.75989 -1.96616
lowerneck -1.09756 4.1589 -0.786388
upperneck -0.683669 5.52554 -3.96662
head 0.066501 2.75076 -1.05567
rclavicle 2.29099e-014 -5.60573e-014
rhumerus -43.1563 0.817839 -87.0424
rradius 70.9901
rwrist 2.34545
rhand -28.7445 12.532
rfingers 7.12502
rthumb -2.10497 -17.4374
lclavicle 2.29099e-014 -5.60573e-014
lhumerus -28.5368 13.1295 85.0741
lradius 80.3857
lwrist -9.08311
lhand -28.1243 0.838912
lfingers 7.12502
lthumb -1.50597 30.8133
rfemur -30.5796 6.2557 27.0006
rtibia 56.4378
rfoot -17.3392 0.981092
rtoes -10.1534
lfemur 4.92108 7.4344 -14.5101
ltibia 74.6337
lfoot -6.16337 -6.90745
ltoes -9.1728
188
root -0.531672 16.1494 1.47799 889.324 -41.6278 -896.361
lowerback 36.575 -5.48853 8.18347
upperback 8.83706 -6.018 -0.200688
thorax -8.79375 -3.72375 -1.97841
lowerneck -1.14371 4.09623 -0.809342
upperneck -0.708839 5.44114 -3.97775
head 0.0646648 2.70806 -1.05509
rclavicle 1.48592e-014 -7.65321e-015
rhumerus -42.9426 0.927473 -86.9866
rradius 71.043
rwrist 2.49505
rhand -28.9177 12.481
rfingers 7.12502
rthumb -2.27225 -17.4866
lclavicle 1.48592e-014 -7.65321e-015
lhumerus -28.6045 13.1894 84.9591
lradius 80.421
lwrist -8.85937
lhand -27.9584 0.661246
lfingers 7.12502
lthumb -1.34573 30.6367
rfemur -29.9146 6.09191 27.0433
rtibia 56.6908
rfoot -17.9446 0.957519
rtoes -10.2084
lfemur 3.90133 7.52447 -14.3186
ltibia 76.0081
lfoot -7.09843 -7.20326
ltoes -9.28538
189
root -0.611972 16.1545 1.3701 889.167 -41.8214 -896.47
lowerback 36.6703 -5.38909 8.05102
upperback 8.88393 -5.94427 -0.195721
thorax -8.76053 -3.69148 -1.93229
lowerneck -1.1682 4.05745 -0.931588
upperneck -0.679801 5.39131 -3.94008
head 0.0721851 2.6823 -1.02263
rclavicle 5.57094e-014 9.44227e-015
rhumerus -42.8337 1.18894 -86.847
rradius 71.1984
rwrist 2.60387
rhand -29.0796 12.4084
rfingers 7.12502
rthumb -2.42863 -17.5575
lclavicle 5.57094e-014 9.44227e-015
lhumerus -28.7034 13.3687 84.9
lradius 80.3576
lwrist -8.84661
lhand -27.9507 0.490449
lfingers 7.12502
lthumb -1.33828 30.466
rfemur -29.2562 5.92663 27.05
rtibia 56.9491
rfoot -18.5309 0.941368
rtoes -10.3299
lfemur 2.8236 7.54383 -14.1999
ltibia 77.2814
lfoot -8.00553 -7.4853
ltoes -9.27768
190
root -0.689269 16.1584 1.26381 888.964 -41.9999 -896.485
lowerback 36.7214 -5.28374 7.99591
upperback 8.95977 -5.84443 -0.190187
thorax -8.68099 -3.64815 -1.94021
lowerneck -1.15402 3.99236 -0.967907
upperneck -0.736573 5.30056 -3.99049
head 0.0515731 2.63732 -1.03381
rclavicle 1.31198e-014 -3.45885e-014
rhumerus -42.592 1.36596 -86.732
rradius 71.2863
rwrist 2.71587
rhand -29.3065 12.2539
rfingers 7.12502
rthumb -2.64769 -17.7094
lclavicle 1.31198e-014 -3.45885e-014
lhumerus -28.77 13.5149 84.8524
lradius 80.3324
lwrist -8.86951
lhand -27.8881 0.493339
lfingers 7.12502
lthumb -1.27779 30.4693
rfemur -28.6285 5.80485 27.1438
rtibia 57.2008
rfoot -19.0766 0.860462
rtoes -10.2474
lfemur 1.66909 7.51675 -14.0305
ltibia 78.4883
lfoot -8.82392 -7.79913
ltoes -9.06191
191
root -0.76248 16.1596 1.15757 888.851 -42.1849 -896.596
lowerback 36.781 -5.14639 7.84846
upperback 9.0114 -5.73153 -0.201377
thorax -8.62881 -3.59611 -1.92235
lowerneck -1.23154 3.93411 -1.02018
upperneck -0.723136 5.22469 -3.98178
head 0.0655054 2.59797 -1.02103
rclavicle -1.61513e-014 3.17062e-014
rhumerus -42.3471 1.47373 -86.6181
rradius 71.3498
rwrist 2.80225
rhand -29.4373 12.2156
rfingers 7.12502
rthumb -2.77402 -17.7461
lclavicle -1.61513e-014 3.17062e-014
lhumerus -28.7939 13.6702 84.7579
lradius 80.196
lwrist -8.89305
lhand -27.8072 0.473309
lfingers 7.12502
lthumb -1.1997 30.4497
rfemur -28.0554 5.68974 27.176
rtibia 57.4808
rfoot -19.553 0.782522
rtoes -10.283
lfemur 0.445668 7.50215 -13.9214
ltibia 79.6422
lfoot -9.59236 -8.15577
ltoes -8.87873
192
root -0.834715 16.1589 1.05374 888.7 -42.3829 -896.684
lowerback 36.8655 -5.02285 7.75095
upperback 9.06863 -5.61974 -0.232393
thorax -8.58355 -3.54529 -1.94874
lowerneck -1.31835 3.86891 -1.03017
upperneck -0.703541 5.13996 -3.97455
head 0.0839125 2.55405 -1.01553
rclavicle 1.41137e-014 -1.19271e-014
rhumerus -42.1483 1.58667 -86.5295
rradius 71.4701
rwrist 2.88851
rhand -29.5876 12.1171
rfingers 7.12502
rthumb -2.91915 -17.8427
lclavicle 1.41137e-014 -1.19271e-014
lhumerus -28.8199 13.806 84.6779
lradius 80.0912
lwrist -9.00904
lhand -27.7452 0.485325
lfingers 7.12502
lthumb -1.13982 30.462
rfemur -27.4813 5.5584 27.2172
rtibia 57.7684
rfoot -20.0005 0.705058
rtoes -10.3074
lfemur -0.778987 7.48334 -13.8043
ltibia 80.7192
lfoot -10.3194 -8.53201
ltoes -8.6976
193
root -0.902307 16.1535 0.95183 888.473 -42.5714 -896.72
lowerback 36.9896 -4.87841 7.6492
upperback 9.12663 -5.48037 -0.230834
thorax -8.5446 -3.48372 -1.94698
lowerneck -1.40808 3.79459 -1.0804
upperneck -0.642501 5.04521 -3.94671
head 0.113657 2.50448 -0.996596
rclavicle -6.65432e-014 1.18277e-014
rhumerus -41.9498 1.71908 -86.427
rradius 71.5855
rwrist 2.88841
rhand -29.7505 11.9869
rfingers 7.12502
rthumb -3.07646 -17.9706
lclavicle -6.65432e-014 1.18277e-014
lhumerus -28.8168 13.9537 84.6233
lradius 79.9645
lwrist -9.17641
lhand -27.6449 0.695552
lfingers 7.12502
lthumb -1.04299 30.6727
rfemur -26.8865 5.48367 27.3051
rtibia 58.0723
rfoot -20.4553 0.625237
rtoes -10.2634
lfemur -2.00315 7.47576 -13.6341
ltibia 81.7539
lfoot -10.9392 -8.92325
ltoes -8.01209
194
root -0.970114 16.1512 0.84885 888.327 -42.7737 -896.782
lowerback 37.0496 -4.71379 7.50147
upperback 9.16886 -5.32739 -0.192183
thorax -8.49502 -3.4138 -1.89164
lowerneck -1.45383 3.71585 -1.18204
upperneck -0.684679 4.93888 -3.95484
head 0.104283 2.45082 -0.982612
rclavicle -4.9398e-014 2.16178e-014
rhumerus -41.6957 1.92156 -86.2465
rradius 71.6676
rwrist 2.81737
rhand -29.9367 11.8409
rfingers 7.12502
rthumb -3.25635 -18.114
lclavicle -4.9398e-014 2.16178e-014
lhumerus -28.8952 14.086 84.6147
lradius 79.9229
lwrist -9.23915
lhand -27.5603 0.971135
lfingers 7.12502
lthumb -0.961266 30.9487
rfemur -26.3468 5.39342 27.376
rtibia 58.3703
rfoot -20.9116 0.521466
rtoes -10.122
lfemur -3.29344 7.44554 -13.5149
ltibia 82.7015
lfoot -11.5561 -9.30222
ltoes -7.56131
195
root -1.0364 16.1476 0.747465 888.172 -42.9579 -896.88
lowerback 37.1461 -4.53959 7.37021
upperback 9.21174 -5.16008 -0.219922
thorax -8.46443 -3.33632 -1.91821
lowerneck -1.58399 3.62148 -1.11721
upperneck -0.576425 4.81908 -3.97848
head 0.159161 2.38717 -0.997586
rclavicle -4.98453e-014 -1.93318e-014
rhumerus -41.4918 1.99169 -86.1348
rradius 71.7978
rwrist 2.75909
rhand -30.0352 11.8275
rfingers 7.12502
rthumb -3.35145 -18.1259
lclavicle -4.98453e-014 -1.93318e-014
lhumerus -28.9906 14.1045 84.5165
lradius 79.8824
lwrist -9.3321
lhand -27.5259 1.19103
lfingers 7.12502
lthumb -0.928031 31.1688
rfemur -25.7902 5.27752 27.4245
rtibia 58.6729
rfoot -21.2953 0.450837
rtoes -10.15
lfemur -4.56678 7.43783 -13.4435
ltibia 83.5743
lfoot -12.0462 -9.57302
ltoes -7.08751
